<svg xmlns="http://www.w3.org/2000/svg" xmlns:xlink="http://www.w3.org/1999/xlink" width="500" zoomAndPan="magnify" viewBox="0 0 375 374.999991" height="500" preserveAspectRatio="xMidYMid meet" version="1.0"><defs><g/></defs><g fill="#f4f3f3" fill-opacity="1"><g transform="translate(49.996836, 251.213648)"><g><path d="M 128.625 -2.453125 C 128.894531 -1.910156 128.820312 -1.363281 128.40625 -0.8125 C 128 -0.269531 127.457031 0 126.78125 0 L 98.515625 0 C 97.554688 0 96.941406 -0.410156 96.671875 -1.234375 L 64.3125 -92.578125 L 32.359375 -1.234375 C 32.222656 -0.410156 31.539062 0 30.3125 0 L 2.25 0 C 1.289062 0 0.640625 -0.269531 0.296875 -0.8125 C -0.0351562 -1.363281 -0.0664062 -1.910156 0.203125 -2.453125 L 62.265625 -162.625 C 62.535156 -163.4375 63.21875 -163.84375 64.3125 -163.84375 C 65.40625 -163.84375 66.085938 -163.4375 66.359375 -162.625 Z M 128.625 -2.453125 "/></g></g></g><g fill="#00c4cc" fill-opacity="1"><g transform="translate(144.213977, 251.213648)"><g><path d="M 85.40625 -133.328125 L 116.953125 -133.328125 L 65.75 -1.03125 C 65.46875 -0.34375 64.847656 0 63.890625 0 C 62.941406 0 62.265625 -0.34375 61.859375 -1.03125 L 0.203125 -161.390625 C -0.0664062 -162.078125 -0.0351562 -162.65625 0.296875 -163.125 C 0.640625 -163.601562 1.222656 -163.84375 2.046875 -163.84375 L 29.90625 -163.84375 C 31.132812 -163.84375 31.816406 -163.4375 31.953125 -162.625 L 63.90625 -73.328125 Z M 85.40625 -133.328125 "/></g></g></g><g fill="#00c4cc" fill-opacity="1"><g transform="translate(226.136346, 251.213648)"><g><path d="M 85.40625 -133.328125 L 116.953125 -133.328125 L 65.75 -1.03125 C 65.46875 -0.34375 64.847656 0 63.890625 0 C 62.941406 0 62.265625 -0.34375 61.859375 -1.03125 L 0.203125 -161.390625 C -0.0664062 -162.078125 -0.0351562 -162.65625 0.296875 -163.125 C 0.640625 -163.601562 1.222656 -163.84375 2.046875 -163.84375 L 29.90625 -163.84375 C 31.132812 -163.84375 31.816406 -163.4375 31.953125 -162.625 L 63.90625 -73.328125 Z M 85.40625 -133.328125 "/></g></g></g><g fill="#00c4cc" fill-opacity="1"><g transform="translate(45.193215, 287.910414)"><g><path d="M 3.25 -9.40625 C 3.101562 -9.363281 3.03125 -9.238281 3.03125 -9.03125 C 3.03125 -8.832031 2.945312 -8.003906 2.78125 -6.546875 C 4.375 -6.660156 5.457031 -6.753906 6.03125 -6.828125 C 6.601562 -6.910156 6.960938 -6.925781 7.109375 -6.875 C 7.265625 -6.820312 7.46875 -6.679688 7.71875 -6.453125 C 7.9375 -6.234375 8.046875 -6.046875 8.046875 -5.890625 C 8.046875 -5.742188 7.941406 -5.554688 7.734375 -5.328125 C 7.503906 -5.109375 7.238281 -4.960938 6.9375 -4.890625 C 6.644531 -4.816406 6.015625 -4.753906 5.046875 -4.703125 L 2.84375 -4.578125 C 2.800781 -3.816406 2.851562 -3.125 3 -2.5 C 3.15625 -1.875 3.410156 -1.515625 3.765625 -1.421875 C 4.171875 -1.316406 6.304688 -1.195312 10.171875 -1.0625 L 10.421875 -0.5625 C 10.535156 -0.332031 10.59375 -0.164062 10.59375 -0.0625 C 10.59375 0.03125 10.535156 0.15625 10.421875 0.3125 C 10.304688 0.476562 10.222656 0.582031 10.171875 0.625 C 10.117188 0.675781 9.972656 0.722656 9.734375 0.765625 C 9.503906 0.804688 9.234375 0.828125 8.921875 0.828125 C 8.609375 0.828125 8.070312 0.832031 7.3125 0.84375 C 5.257812 0.84375 3.820312 0.703125 3 0.421875 C 2.1875 0.148438 1.601562 -0.375 1.25 -1.15625 C 1.070312 -1.59375 0.894531 -2.492188 0.71875 -3.859375 C 0.550781 -5.234375 0.515625 -6.007812 0.609375 -6.1875 C 0.710938 -6.363281 0.800781 -6.890625 0.875 -7.765625 C 0.945312 -8.640625 0.992188 -9.222656 1.015625 -9.515625 C 1.046875 -9.816406 1.125 -10.097656 1.25 -10.359375 C 1.375 -10.617188 1.503906 -10.8125 1.640625 -10.9375 C 1.773438 -11.0625 2.003906 -11.175781 2.328125 -11.28125 C 2.671875 -11.375 3.015625 -11.445312 3.359375 -11.5 C 3.710938 -11.550781 4.4375 -11.625 5.53125 -11.71875 C 6.625 -11.820312 7.328125 -11.925781 7.640625 -12.03125 C 8.441406 -12.269531 9.023438 -12.226562 9.390625 -11.90625 C 9.585938 -11.738281 9.6875 -11.515625 9.6875 -11.234375 C 9.6875 -10.960938 9.585938 -10.726562 9.390625 -10.53125 C 9.203125 -10.332031 8.671875 -10.144531 7.796875 -9.96875 C 6.929688 -9.789062 5.992188 -9.664062 4.984375 -9.59375 C 3.972656 -9.519531 3.394531 -9.457031 3.25 -9.40625 Z M 3.25 -9.40625 "/></g></g></g><g fill="#00c4cc" fill-opacity="1"><g transform="translate(58.90343, 287.910414)"><g><path d="M 1.484375 -8.625 C 0.867188 -9.84375 0.5625 -10.578125 0.5625 -10.828125 C 0.5625 -11.078125 0.664062 -11.304688 0.875 -11.515625 C 1.0625 -11.734375 1.289062 -11.84375 1.5625 -11.84375 C 1.84375 -11.84375 2.066406 -11.738281 2.234375 -11.53125 C 2.410156 -11.332031 2.617188 -10.972656 2.859375 -10.453125 C 3.097656 -9.929688 3.585938 -9.019531 4.328125 -7.71875 C 5.078125 -6.414062 5.800781 -5.21875 6.5 -4.125 C 7.195312 -3.03125 7.578125 -2.507812 7.640625 -2.5625 C 7.773438 -2.875 8.09375 -3.710938 8.59375 -5.078125 C 9.09375 -6.441406 9.441406 -7.347656 9.640625 -7.796875 C 9.835938 -8.253906 10.050781 -8.765625 10.28125 -9.328125 C 10.519531 -9.898438 10.660156 -10.234375 10.703125 -10.328125 C 10.835938 -10.660156 11.050781 -10.898438 11.34375 -11.046875 C 11.644531 -11.203125 11.929688 -11.21875 12.203125 -11.09375 C 12.484375 -10.96875 12.640625 -10.75 12.671875 -10.4375 C 12.710938 -10.125 12.351562 -9.035156 11.59375 -7.171875 C 10.832031 -5.304688 10.226562 -3.679688 9.78125 -2.296875 C 9.332031 -0.910156 9.007812 -0.0195312 8.8125 0.375 C 8.613281 0.769531 8.398438 1.015625 8.171875 1.109375 C 7.847656 1.203125 7.566406 1.160156 7.328125 0.984375 C 7.097656 0.816406 6.828125 0.453125 6.515625 -0.109375 C 6.203125 -0.671875 5.445312 -1.921875 4.25 -3.859375 C 3.03125 -5.816406 2.109375 -7.40625 1.484375 -8.625 Z M 1.484375 -8.625 "/></g></g></g><g fill="#00c4cc" fill-opacity="1"><g transform="translate(74.70567, 287.910414)"><g><path d="M 3.25 -9.40625 C 3.101562 -9.363281 3.03125 -9.238281 3.03125 -9.03125 C 3.03125 -8.832031 2.945312 -8.003906 2.78125 -6.546875 C 4.375 -6.660156 5.457031 -6.753906 6.03125 -6.828125 C 6.601562 -6.910156 6.960938 -6.925781 7.109375 -6.875 C 7.265625 -6.820312 7.46875 -6.679688 7.71875 -6.453125 C 7.9375 -6.234375 8.046875 -6.046875 8.046875 -5.890625 C 8.046875 -5.742188 7.941406 -5.554688 7.734375 -5.328125 C 7.503906 -5.109375 7.238281 -4.960938 6.9375 -4.890625 C 6.644531 -4.816406 6.015625 -4.753906 5.046875 -4.703125 L 2.84375 -4.578125 C 2.800781 -3.816406 2.851562 -3.125 3 -2.5 C 3.15625 -1.875 3.410156 -1.515625 3.765625 -1.421875 C 4.171875 -1.316406 6.304688 -1.195312 10.171875 -1.0625 L 10.421875 -0.5625 C 10.535156 -0.332031 10.59375 -0.164062 10.59375 -0.0625 C 10.59375 0.03125 10.535156 0.15625 10.421875 0.3125 C 10.304688 0.476562 10.222656 0.582031 10.171875 0.625 C 10.117188 0.675781 9.972656 0.722656 9.734375 0.765625 C 9.503906 0.804688 9.234375 0.828125 8.921875 0.828125 C 8.609375 0.828125 8.070312 0.832031 7.3125 0.84375 C 5.257812 0.84375 3.820312 0.703125 3 0.421875 C 2.1875 0.148438 1.601562 -0.375 1.25 -1.15625 C 1.070312 -1.59375 0.894531 -2.492188 0.71875 -3.859375 C 0.550781 -5.234375 0.515625 -6.007812 0.609375 -6.1875 C 0.710938 -6.363281 0.800781 -6.890625 0.875 -7.765625 C 0.945312 -8.640625 0.992188 -9.222656 1.015625 -9.515625 C 1.046875 -9.816406 1.125 -10.097656 1.25 -10.359375 C 1.375 -10.617188 1.503906 -10.8125 1.640625 -10.9375 C 1.773438 -11.0625 2.003906 -11.175781 2.328125 -11.28125 C 2.671875 -11.375 3.015625 -11.445312 3.359375 -11.5 C 3.710938 -11.550781 4.4375 -11.625 5.53125 -11.71875 C 6.625 -11.820312 7.328125 -11.925781 7.640625 -12.03125 C 8.441406 -12.269531 9.023438 -12.226562 9.390625 -11.90625 C 9.585938 -11.738281 9.6875 -11.515625 9.6875 -11.234375 C 9.6875 -10.960938 9.585938 -10.726562 9.390625 -10.53125 C 9.203125 -10.332031 8.671875 -10.144531 7.796875 -9.96875 C 6.929688 -9.789062 5.992188 -9.664062 4.984375 -9.59375 C 3.972656 -9.519531 3.394531 -9.457031 3.25 -9.40625 Z M 3.25 -9.40625 "/></g></g></g><g fill="#00c4cc" fill-opacity="1"><g transform="translate(88.415884, 287.910414)"><g><path d="M 5.671875 -9.265625 C 4.953125 -9.640625 4.382812 -9.828125 3.96875 -9.828125 C 3.5625 -9.828125 3.101562 -9.703125 2.59375 -9.453125 C 2.695312 -7.441406 2.796875 -6.332031 2.890625 -6.125 C 2.984375 -6.019531 3.453125 -6.066406 4.296875 -6.265625 C 5.140625 -6.472656 5.8125 -6.710938 6.3125 -6.984375 C 6.8125 -7.253906 7.125 -7.492188 7.25 -7.703125 C 7.375 -7.921875 7.320312 -8.140625 7.09375 -8.359375 C 6.875 -8.585938 6.398438 -8.890625 5.671875 -9.265625 Z M 8.453125 1.21875 C 8.097656 1.21875 7.800781 1.0625 7.5625 0.75 C 7.394531 0.550781 6.679688 -0.125 5.421875 -1.28125 C 4.171875 -2.445312 3.445312 -3.09375 3.25 -3.21875 C 3.175781 -3.257812 3.148438 -2.742188 3.171875 -1.671875 C 3.203125 -0.609375 3.195312 0.0195312 3.15625 0.21875 C 3.113281 0.414062 2.988281 0.585938 2.78125 0.734375 C 2.5 0.941406 2.207031 0.984375 1.90625 0.859375 C 1.601562 0.734375 1.414062 0.523438 1.34375 0.234375 C 1.269531 -0.046875 1.195312 -0.804688 1.125 -2.046875 C 1.050781 -3.296875 0.921875 -4.054688 0.734375 -4.328125 C 0.554688 -4.609375 0.515625 -4.863281 0.609375 -5.09375 C 0.710938 -5.332031 0.71875 -6.285156 0.625 -7.953125 C 0.539062 -9.617188 0.523438 -10.539062 0.578125 -10.71875 C 0.640625 -11.039062 0.785156 -11.285156 1.015625 -11.453125 C 1.253906 -11.628906 1.523438 -11.679688 1.828125 -11.609375 C 2.128906 -11.535156 2.414062 -11.550781 2.6875 -11.65625 C 3.238281 -11.875 3.898438 -11.910156 4.671875 -11.765625 C 5.441406 -11.617188 6.296875 -11.269531 7.234375 -10.71875 C 8.179688 -10.164062 8.820312 -9.59375 9.15625 -9 C 9.5 -8.40625 9.503906 -7.738281 9.171875 -7 C 8.929688 -6.488281 8.570312 -6.046875 8.09375 -5.671875 C 7.625 -5.296875 6.9375 -4.945312 6.03125 -4.625 L 5.15625 -4.296875 C 7.550781 -2.210938 8.929688 -0.878906 9.296875 -0.296875 C 9.441406 -0.0234375 9.515625 0.171875 9.515625 0.296875 C 9.515625 0.421875 9.425781 0.609375 9.25 0.859375 C 9.082031 1.109375 8.816406 1.226562 8.453125 1.21875 Z M 8.453125 1.21875 "/></g></g></g><g fill="#00c4cc" fill-opacity="1"><g transform="translate(101.061407, 287.910414)"><g><path d="M 4.46875 -6.78125 C 4.550781 -6.769531 4.664062 -6.925781 4.8125 -7.25 C 4.96875 -7.570312 5.53125 -8.46875 6.5 -9.9375 C 7.476562 -11.40625 8.03125 -12.175781 8.15625 -12.25 C 8.46875 -12.457031 8.800781 -12.46875 9.15625 -12.28125 C 9.519531 -12.09375 9.703125 -11.820312 9.703125 -11.46875 C 9.554688 -10.988281 8.910156 -9.835938 7.765625 -8.015625 C 6.617188 -6.203125 6.003906 -5.234375 5.921875 -5.109375 L 5.15625 -3.71875 C 5.15625 -3.5625 5.175781 -3.101562 5.21875 -2.34375 C 5.269531 -1.59375 5.316406 -0.960938 5.359375 -0.453125 C 5.398438 0.046875 5.441406 0.421875 5.484375 0.671875 C 5.535156 0.921875 5.40625 1.191406 5.09375 1.484375 C 4.78125 1.785156 4.476562 1.898438 4.1875 1.828125 C 3.882812 1.734375 3.671875 1.535156 3.546875 1.234375 C 3.429688 0.929688 3.351562 0.257812 3.3125 -0.78125 C 3.164062 -3.320312 2.707031 -5.453125 1.9375 -7.171875 C 1.164062 -8.890625 0.71875 -10.046875 0.59375 -10.640625 C 0.46875 -11.242188 0.597656 -11.644531 0.984375 -11.84375 C 1.367188 -12.039062 1.6875 -12.0625 1.9375 -11.90625 C 2.1875 -11.757812 2.4375 -11.351562 2.6875 -10.6875 C 2.914062 -10.007812 3.253906 -9.1875 3.703125 -8.21875 C 4.148438 -7.25 4.40625 -6.769531 4.46875 -6.78125 Z M 4.46875 -6.78125 "/></g></g></g><g fill="#00c4cc" fill-opacity="1"><g transform="translate(113.893734, 287.910414)"><g><path d="M 5.96875 -8.96875 C 5.832031 -8.96875 5.800781 -8.859375 5.875 -8.640625 C 5.957031 -8.285156 6.03125 -6.945312 6.09375 -4.625 C 6.164062 -2.3125 6.1875 -0.90625 6.15625 -0.40625 C 6.132812 0.09375 6.039062 0.414062 5.875 0.5625 C 5.71875 0.707031 5.5 0.789062 5.21875 0.8125 C 4.945312 0.84375 4.71875 0.78125 4.53125 0.625 C 4.34375 0.476562 4.210938 0.0078125 4.140625 -0.78125 C 4.066406 -1.582031 3.992188 -3.21875 3.921875 -5.6875 L 3.8125 -9.03125 L 2.453125 -9.125 C 1.734375 -9.1875 1.238281 -9.289062 0.96875 -9.4375 C 0.695312 -9.59375 0.5625 -9.878906 0.5625 -10.296875 C 0.5625 -10.722656 0.785156 -11 1.234375 -11.125 C 1.679688 -11.25 2.414062 -11.253906 3.4375 -11.140625 C 4.457031 -11.035156 5.101562 -10.992188 5.375 -11.015625 C 5.644531 -11.035156 6.03125 -11.132812 6.53125 -11.3125 C 7.03125 -11.507812 7.390625 -11.617188 7.609375 -11.640625 C 7.835938 -11.671875 8.085938 -11.625 8.359375 -11.5 C 8.554688 -11.375 8.664062 -11.132812 8.6875 -10.78125 C 8.71875 -10.4375 8.644531 -10.175781 8.46875 -10 C 8.300781 -9.832031 7.890625 -9.617188 7.234375 -9.359375 C 6.578125 -9.097656 6.15625 -8.96875 5.96875 -8.96875 Z M 5.96875 -8.96875 "/></g></g></g><g fill="#00c4cc" fill-opacity="1"><g transform="translate(125.717396, 287.910414)"><g><path d="M 0.671875 -8.703125 C 0.546875 -10.242188 0.53125 -11.148438 0.625 -11.421875 C 0.726562 -11.703125 1.003906 -11.84375 1.453125 -11.84375 C 1.898438 -11.851562 2.1875 -11.757812 2.3125 -11.5625 C 2.4375 -11.363281 2.5 -10.953125 2.5 -10.328125 C 2.507812 -9.703125 2.671875 -8.613281 2.984375 -7.0625 C 3.035156 -6.882812 3.195312 -6.765625 3.46875 -6.703125 C 3.75 -6.640625 4.613281 -6.539062 6.0625 -6.40625 C 7.519531 -6.269531 8.3125 -6.171875 8.4375 -6.109375 C 8.507812 -6.097656 8.570312 -6.253906 8.625 -6.578125 C 8.675781 -6.898438 8.738281 -7.796875 8.8125 -9.265625 C 8.882812 -10.734375 9.007812 -11.566406 9.1875 -11.765625 C 9.363281 -11.960938 9.59375 -12.046875 9.875 -12.015625 C 10.164062 -11.992188 10.394531 -11.890625 10.5625 -11.703125 C 10.738281 -11.515625 10.828125 -11.207031 10.828125 -10.78125 C 10.847656 -10.34375 10.820312 -9.015625 10.75 -6.796875 C 10.675781 -4.578125 10.703125 -2.992188 10.828125 -2.046875 C 10.953125 -1.109375 11.007812 -0.519531 11 -0.28125 C 10.988281 -0.0390625 10.90625 0.160156 10.75 0.328125 C 10.601562 0.503906 10.398438 0.609375 10.140625 0.640625 C 9.878906 0.671875 9.648438 0.625 9.453125 0.5 C 9.109375 0.28125 8.867188 -0.703125 8.734375 -2.453125 L 8.625 -4.03125 C 5.875 -4.332031 4.113281 -4.488281 3.34375 -4.5 C 3.375 -3.90625 3.503906 -3.097656 3.734375 -2.078125 C 3.960938 -1.054688 4.050781 -0.390625 4 -0.078125 C 3.945312 0.234375 3.757812 0.445312 3.4375 0.5625 C 3.144531 0.632812 2.90625 0.632812 2.71875 0.5625 C 2.457031 0.46875 2.203125 0.0351562 1.953125 -0.734375 C 1.710938 -1.503906 1.507812 -2.5 1.34375 -3.71875 C 1.28125 -4.238281 1.125 -4.617188 0.875 -4.859375 C 0.613281 -5.066406 0.523438 -5.332031 0.609375 -5.65625 C 0.773438 -6.144531 0.796875 -7.160156 0.671875 -8.703125 Z M 0.671875 -8.703125 "/></g></g></g><g fill="#00c4cc" fill-opacity="1"><g transform="translate(139.838555, 287.910414)"><g><path d="M 0.65625 -11.390625 C 0.8125 -11.566406 1.054688 -11.65625 1.390625 -11.65625 C 1.734375 -11.65625 2.003906 -11.5625 2.203125 -11.375 C 2.398438 -11.1875 2.59375 -10.414062 2.78125 -9.0625 C 2.957031 -7.695312 3.070312 -5.945312 3.125 -3.8125 C 3.1875 -1.664062 3.253906 -0.285156 3.328125 0.328125 C 3.398438 0.953125 3.347656 1.382812 3.171875 1.625 C 3.015625 1.8125 2.757812 1.914062 2.40625 1.9375 C 2.0625 1.96875 1.8125 1.894531 1.65625 1.71875 C 1.488281 1.539062 1.34375 0.816406 1.21875 -0.453125 C 1.09375 -1.722656 1.03125 -3.203125 1.03125 -4.890625 C 1.03125 -6.585938 0.929688 -8.039062 0.734375 -9.25 C 0.523438 -10.46875 0.5 -11.179688 0.65625 -11.390625 Z M 0.65625 -11.390625 "/></g></g></g><g fill="#00c4cc" fill-opacity="1"><g transform="translate(146.320078, 287.910414)"><g><path d="M 0.890625 -4.8125 C 0.671875 -6.457031 0.5625 -7.46875 0.5625 -7.84375 C 0.5625 -8.21875 0.671875 -8.550781 0.890625 -8.84375 C 1.117188 -9.144531 1.367188 -9.300781 1.640625 -9.3125 C 1.910156 -9.300781 2.113281 -9.242188 2.25 -9.140625 C 2.394531 -9.046875 2.5625 -8.847656 2.75 -8.546875 C 3.082031 -7.992188 3.625 -7.367188 4.375 -6.671875 C 4.96875 -6.078125 5.8125 -5.34375 6.90625 -4.46875 C 8 -3.601562 8.625 -3.164062 8.78125 -3.15625 C 8.882812 -3.15625 8.914062 -3.351562 8.875 -3.75 C 8.789062 -5.082031 8.726562 -6.320312 8.6875 -7.46875 C 8.625 -8.613281 8.601562 -9.359375 8.625 -9.703125 C 8.644531 -10.054688 8.726562 -10.3125 8.875 -10.46875 C 9.03125 -10.632812 9.28125 -10.726562 9.625 -10.75 C 9.976562 -10.78125 10.210938 -10.722656 10.328125 -10.578125 C 10.441406 -10.441406 10.535156 -9.925781 10.609375 -9.03125 C 10.679688 -8.132812 10.757812 -6.675781 10.84375 -4.65625 C 10.9375 -2.644531 10.96875 -1.523438 10.9375 -1.296875 C 10.914062 -1.078125 10.800781 -0.894531 10.59375 -0.75 C 10.101562 -0.375 9.492188 -0.359375 8.765625 -0.703125 C 8.046875 -1.054688 6.914062 -1.84375 5.375 -3.0625 C 3.832031 -4.300781 3.039062 -4.898438 3 -4.859375 C 2.96875 -4.828125 3.035156 -4.296875 3.203125 -3.265625 C 3.378906 -2.234375 3.46875 -1.59375 3.46875 -1.34375 C 3.46875 -1.09375 3.398438 -0.875 3.265625 -0.6875 C 3.003906 -0.28125 2.664062 -0.148438 2.25 -0.296875 C 1.84375 -0.441406 1.570312 -0.820312 1.4375 -1.4375 C 1.300781 -2.050781 1.117188 -3.175781 0.890625 -4.8125 Z M 0.890625 -4.8125 "/></g></g></g><g fill="#00c4cc" fill-opacity="1"><g transform="translate(160.385202, 287.910414)"><g><path d="M 5.625 -0.265625 C 6.351562 -0.265625 7.039062 -0.679688 7.6875 -1.515625 C 8.0625 -1.953125 8.25 -2.21875 8.25 -2.3125 C 8.25 -2.382812 7.847656 -2.421875 7.046875 -2.421875 C 6.253906 -2.421875 5.753906 -2.445312 5.546875 -2.5 C 5.335938 -2.550781 5.140625 -2.660156 4.953125 -2.828125 C 4.765625 -3.003906 4.660156 -3.179688 4.640625 -3.359375 C 4.628906 -3.535156 4.695312 -3.734375 4.84375 -3.953125 C 5 -4.179688 5.210938 -4.316406 5.484375 -4.359375 C 5.765625 -4.398438 6.476562 -4.421875 7.625 -4.421875 C 8.769531 -4.429688 9.460938 -4.410156 9.703125 -4.359375 C 9.953125 -4.316406 10.226562 -4.148438 10.53125 -3.859375 C 10.832031 -3.578125 10.976562 -3.289062 10.96875 -3 C 10.957031 -2.71875 10.613281 -2.101562 9.9375 -1.15625 C 9.257812 -0.207031 8.695312 0.453125 8.25 0.828125 C 7.800781 1.171875 7.390625 1.40625 7.015625 1.53125 C 6.640625 1.65625 6.15625 1.722656 5.5625 1.734375 C 4.28125 1.722656 3.15625 1.210938 2.1875 0.203125 C 1.550781 -0.453125 1.117188 -1.140625 0.890625 -1.859375 C 0.671875 -2.585938 0.5625 -3.738281 0.5625 -5.3125 C 0.5625 -6.894531 0.753906 -8.171875 1.140625 -9.140625 C 1.523438 -10.117188 2.15625 -10.835938 3.03125 -11.296875 C 3.375 -11.484375 3.671875 -11.585938 3.921875 -11.609375 C 4.171875 -11.640625 4.722656 -11.628906 5.578125 -11.578125 C 6.441406 -11.523438 7.109375 -11.4375 7.578125 -11.3125 C 8.054688 -11.164062 8.539062 -10.878906 9.03125 -10.453125 C 9.53125 -10.035156 9.90625 -9.601562 10.15625 -9.15625 C 10.414062 -8.707031 10.550781 -8.429688 10.5625 -8.328125 C 10.582031 -8.222656 10.488281 -8.007812 10.28125 -7.6875 C 10.082031 -7.363281 9.804688 -7.226562 9.453125 -7.28125 C 9.109375 -7.332031 8.796875 -7.585938 8.515625 -8.046875 C 8.179688 -8.546875 7.875 -8.878906 7.59375 -9.046875 C 7.320312 -9.222656 6.765625 -9.378906 5.921875 -9.515625 C 5.078125 -9.660156 4.488281 -9.679688 4.15625 -9.578125 C 3.632812 -9.421875 3.222656 -8.832031 2.921875 -7.8125 C 2.617188 -6.789062 2.488281 -5.675781 2.53125 -4.46875 C 2.582031 -3.257812 2.828125 -2.320312 3.265625 -1.65625 C 3.503906 -1.269531 3.859375 -0.941406 4.328125 -0.671875 C 4.804688 -0.398438 5.238281 -0.265625 5.625 -0.265625 Z M 5.625 -0.265625 "/></g></g></g><g fill="#00c4cc" fill-opacity="1"><g transform="translate(174.468995, 287.910414)"><g/></g></g><g fill="#00c4cc" fill-opacity="1"><g transform="translate(183.976486, 287.910414)"><g><path d="M 2.703125 -4.96875 L 5.765625 -4.96875 C 7.460938 -4.96875 8.492188 -4.914062 8.859375 -4.8125 C 9.234375 -4.71875 9.421875 -4.429688 9.421875 -3.953125 C 9.421875 -3.484375 9.25 -3.195312 8.90625 -3.09375 C 8.5625 -3 7.539062 -2.957031 5.84375 -2.96875 L 2.703125 -2.96875 C 2.703125 -0.738281 2.628906 0.519531 2.484375 0.8125 C 2.347656 1.113281 2.101562 1.289062 1.75 1.34375 C 1.40625 1.394531 1.109375 1.300781 0.859375 1.0625 C 0.691406 0.90625 0.597656 0.585938 0.578125 0.109375 C 0.554688 -0.359375 0.578125 -1.851562 0.640625 -4.375 C 0.703125 -6.90625 0.734375 -8.601562 0.734375 -9.46875 C 0.710938 -9.726562 0.835938 -9.992188 1.109375 -10.265625 C 1.390625 -10.546875 1.644531 -10.703125 1.875 -10.734375 C 2.113281 -10.773438 2.796875 -10.769531 3.921875 -10.71875 C 5.046875 -10.664062 6.070312 -10.523438 7 -10.296875 C 7.9375 -10.078125 8.578125 -9.828125 8.921875 -9.546875 C 9.117188 -9.378906 9.21875 -9.164062 9.21875 -8.90625 C 9.21875 -8.644531 9.117188 -8.40625 8.921875 -8.1875 C 8.722656 -7.976562 8.488281 -7.875 8.21875 -7.875 C 7.945312 -7.875 7.445312 -8 6.71875 -8.25 C 5.988281 -8.5 4.648438 -8.613281 2.703125 -8.59375 Z M 2.703125 -4.96875 "/></g></g></g><g fill="#00c4cc" fill-opacity="1"><g transform="translate(196.528614, 287.910414)"><g><path d="M 6.71875 -8.875 C 6.21875 -9.132812 5.894531 -9.269531 5.75 -9.28125 C 5.601562 -9.289062 5.335938 -9.207031 4.953125 -9.03125 C 4.160156 -8.707031 3.601562 -8.304688 3.28125 -7.828125 C 2.957031 -7.359375 2.742188 -6.6875 2.640625 -5.8125 C 2.546875 -4.945312 2.757812 -4.226562 3.28125 -3.65625 C 3.8125 -3.082031 4.523438 -2.785156 5.421875 -2.765625 C 5.941406 -2.765625 6.398438 -2.863281 6.796875 -3.0625 C 7.191406 -3.257812 7.585938 -3.570312 7.984375 -4 C 8.390625 -4.445312 8.660156 -4.894531 8.796875 -5.34375 C 8.929688 -5.789062 8.914062 -6.179688 8.75 -6.515625 C 8.226562 -7.660156 7.550781 -8.445312 6.71875 -8.875 Z M 0.5625 -5.46875 C 0.5625 -6.84375 0.929688 -8.03125 1.671875 -9.03125 C 2.421875 -10.039062 3.4375 -10.742188 4.71875 -11.140625 C 5.15625 -11.285156 5.570312 -11.328125 5.96875 -11.265625 C 6.375 -11.203125 6.867188 -11.03125 7.453125 -10.75 C 8.429688 -10.300781 9.242188 -9.601562 9.890625 -8.65625 C 10.535156 -7.71875 10.867188 -6.757812 10.890625 -5.78125 C 10.867188 -4.8125 10.472656 -3.84375 9.703125 -2.875 C 8.929688 -1.90625 8.015625 -1.242188 6.953125 -0.890625 C 5.878906 -0.566406 4.84375 -0.566406 3.84375 -0.890625 C 2.851562 -1.210938 2.054688 -1.785156 1.453125 -2.609375 C 0.859375 -3.429688 0.5625 -4.382812 0.5625 -5.46875 Z M 0.5625 -5.46875 "/></g></g></g><g fill="#00c4cc" fill-opacity="1"><g transform="translate(210.537686, 287.910414)"><g><path d="M 5.671875 -9.265625 C 4.953125 -9.640625 4.382812 -9.828125 3.96875 -9.828125 C 3.5625 -9.828125 3.101562 -9.703125 2.59375 -9.453125 C 2.695312 -7.441406 2.796875 -6.332031 2.890625 -6.125 C 2.984375 -6.019531 3.453125 -6.066406 4.296875 -6.265625 C 5.140625 -6.472656 5.8125 -6.710938 6.3125 -6.984375 C 6.8125 -7.253906 7.125 -7.492188 7.25 -7.703125 C 7.375 -7.921875 7.320312 -8.140625 7.09375 -8.359375 C 6.875 -8.585938 6.398438 -8.890625 5.671875 -9.265625 Z M 8.453125 1.21875 C 8.097656 1.21875 7.800781 1.0625 7.5625 0.75 C 7.394531 0.550781 6.679688 -0.125 5.421875 -1.28125 C 4.171875 -2.445312 3.445312 -3.09375 3.25 -3.21875 C 3.175781 -3.257812 3.148438 -2.742188 3.171875 -1.671875 C 3.203125 -0.609375 3.195312 0.0195312 3.15625 0.21875 C 3.113281 0.414062 2.988281 0.585938 2.78125 0.734375 C 2.5 0.941406 2.207031 0.984375 1.90625 0.859375 C 1.601562 0.734375 1.414062 0.523438 1.34375 0.234375 C 1.269531 -0.046875 1.195312 -0.804688 1.125 -2.046875 C 1.050781 -3.296875 0.921875 -4.054688 0.734375 -4.328125 C 0.554688 -4.609375 0.515625 -4.863281 0.609375 -5.09375 C 0.710938 -5.332031 0.71875 -6.285156 0.625 -7.953125 C 0.539062 -9.617188 0.523438 -10.539062 0.578125 -10.71875 C 0.640625 -11.039062 0.785156 -11.285156 1.015625 -11.453125 C 1.253906 -11.628906 1.523438 -11.679688 1.828125 -11.609375 C 2.128906 -11.535156 2.414062 -11.550781 2.6875 -11.65625 C 3.238281 -11.875 3.898438 -11.910156 4.671875 -11.765625 C 5.441406 -11.617188 6.296875 -11.269531 7.234375 -10.71875 C 8.179688 -10.164062 8.820312 -9.59375 9.15625 -9 C 9.5 -8.40625 9.503906 -7.738281 9.171875 -7 C 8.929688 -6.488281 8.570312 -6.046875 8.09375 -5.671875 C 7.625 -5.296875 6.9375 -4.945312 6.03125 -4.625 L 5.15625 -4.296875 C 7.550781 -2.210938 8.929688 -0.878906 9.296875 -0.296875 C 9.441406 -0.0234375 9.515625 0.171875 9.515625 0.296875 C 9.515625 0.421875 9.425781 0.609375 9.25 0.859375 C 9.082031 1.109375 8.816406 1.226562 8.453125 1.21875 Z M 8.453125 1.21875 "/></g></g></g><g fill="#00c4cc" fill-opacity="1"><g transform="translate(223.183203, 287.910414)"><g/></g></g><g fill="#00c4cc" fill-opacity="1"><g transform="translate(232.690695, 287.910414)"><g><path d="M 5.96875 -8.96875 C 5.832031 -8.96875 5.800781 -8.859375 5.875 -8.640625 C 5.957031 -8.285156 6.03125 -6.945312 6.09375 -4.625 C 6.164062 -2.3125 6.1875 -0.90625 6.15625 -0.40625 C 6.132812 0.09375 6.039062 0.414062 5.875 0.5625 C 5.71875 0.707031 5.5 0.789062 5.21875 0.8125 C 4.945312 0.84375 4.71875 0.78125 4.53125 0.625 C 4.34375 0.476562 4.210938 0.0078125 4.140625 -0.78125 C 4.066406 -1.582031 3.992188 -3.21875 3.921875 -5.6875 L 3.8125 -9.03125 L 2.453125 -9.125 C 1.734375 -9.1875 1.238281 -9.289062 0.96875 -9.4375 C 0.695312 -9.59375 0.5625 -9.878906 0.5625 -10.296875 C 0.5625 -10.722656 0.785156 -11 1.234375 -11.125 C 1.679688 -11.25 2.414062 -11.253906 3.4375 -11.140625 C 4.457031 -11.035156 5.101562 -10.992188 5.375 -11.015625 C 5.644531 -11.035156 6.03125 -11.132812 6.53125 -11.3125 C 7.03125 -11.507812 7.390625 -11.617188 7.609375 -11.640625 C 7.835938 -11.671875 8.085938 -11.625 8.359375 -11.5 C 8.554688 -11.375 8.664062 -11.132812 8.6875 -10.78125 C 8.71875 -10.4375 8.644531 -10.175781 8.46875 -10 C 8.300781 -9.832031 7.890625 -9.617188 7.234375 -9.359375 C 6.578125 -9.097656 6.15625 -8.96875 5.96875 -8.96875 Z M 5.96875 -8.96875 "/></g></g></g><g fill="#00c4cc" fill-opacity="1"><g transform="translate(244.514363, 287.910414)"><g><path d="M 0.671875 -8.703125 C 0.546875 -10.242188 0.53125 -11.148438 0.625 -11.421875 C 0.726562 -11.703125 1.003906 -11.84375 1.453125 -11.84375 C 1.898438 -11.851562 2.1875 -11.757812 2.3125 -11.5625 C 2.4375 -11.363281 2.5 -10.953125 2.5 -10.328125 C 2.507812 -9.703125 2.671875 -8.613281 2.984375 -7.0625 C 3.035156 -6.882812 3.195312 -6.765625 3.46875 -6.703125 C 3.75 -6.640625 4.613281 -6.539062 6.0625 -6.40625 C 7.519531 -6.269531 8.3125 -6.171875 8.4375 -6.109375 C 8.507812 -6.097656 8.570312 -6.253906 8.625 -6.578125 C 8.675781 -6.898438 8.738281 -7.796875 8.8125 -9.265625 C 8.882812 -10.734375 9.007812 -11.566406 9.1875 -11.765625 C 9.363281 -11.960938 9.59375 -12.046875 9.875 -12.015625 C 10.164062 -11.992188 10.394531 -11.890625 10.5625 -11.703125 C 10.738281 -11.515625 10.828125 -11.207031 10.828125 -10.78125 C 10.847656 -10.34375 10.820312 -9.015625 10.75 -6.796875 C 10.675781 -4.578125 10.703125 -2.992188 10.828125 -2.046875 C 10.953125 -1.109375 11.007812 -0.519531 11 -0.28125 C 10.988281 -0.0390625 10.90625 0.160156 10.75 0.328125 C 10.601562 0.503906 10.398438 0.609375 10.140625 0.640625 C 9.878906 0.671875 9.648438 0.625 9.453125 0.5 C 9.109375 0.28125 8.867188 -0.703125 8.734375 -2.453125 L 8.625 -4.03125 C 5.875 -4.332031 4.113281 -4.488281 3.34375 -4.5 C 3.375 -3.90625 3.503906 -3.097656 3.734375 -2.078125 C 3.960938 -1.054688 4.050781 -0.390625 4 -0.078125 C 3.945312 0.234375 3.757812 0.445312 3.4375 0.5625 C 3.144531 0.632812 2.90625 0.632812 2.71875 0.5625 C 2.457031 0.46875 2.203125 0.0351562 1.953125 -0.734375 C 1.710938 -1.503906 1.507812 -2.5 1.34375 -3.71875 C 1.28125 -4.238281 1.125 -4.617188 0.875 -4.859375 C 0.613281 -5.066406 0.523438 -5.332031 0.609375 -5.65625 C 0.773438 -6.144531 0.796875 -7.160156 0.671875 -8.703125 Z M 0.671875 -8.703125 "/></g></g></g><g fill="#00c4cc" fill-opacity="1"><g transform="translate(258.635516, 287.910414)"><g><path d="M 3.25 -9.40625 C 3.101562 -9.363281 3.03125 -9.238281 3.03125 -9.03125 C 3.03125 -8.832031 2.945312 -8.003906 2.78125 -6.546875 C 4.375 -6.660156 5.457031 -6.753906 6.03125 -6.828125 C 6.601562 -6.910156 6.960938 -6.925781 7.109375 -6.875 C 7.265625 -6.820312 7.46875 -6.679688 7.71875 -6.453125 C 7.9375 -6.234375 8.046875 -6.046875 8.046875 -5.890625 C 8.046875 -5.742188 7.941406 -5.554688 7.734375 -5.328125 C 7.503906 -5.109375 7.238281 -4.960938 6.9375 -4.890625 C 6.644531 -4.816406 6.015625 -4.753906 5.046875 -4.703125 L 2.84375 -4.578125 C 2.800781 -3.816406 2.851562 -3.125 3 -2.5 C 3.15625 -1.875 3.410156 -1.515625 3.765625 -1.421875 C 4.171875 -1.316406 6.304688 -1.195312 10.171875 -1.0625 L 10.421875 -0.5625 C 10.535156 -0.332031 10.59375 -0.164062 10.59375 -0.0625 C 10.59375 0.03125 10.535156 0.15625 10.421875 0.3125 C 10.304688 0.476562 10.222656 0.582031 10.171875 0.625 C 10.117188 0.675781 9.972656 0.722656 9.734375 0.765625 C 9.503906 0.804688 9.234375 0.828125 8.921875 0.828125 C 8.609375 0.828125 8.070312 0.832031 7.3125 0.84375 C 5.257812 0.84375 3.820312 0.703125 3 0.421875 C 2.1875 0.148438 1.601562 -0.375 1.25 -1.15625 C 1.070312 -1.59375 0.894531 -2.492188 0.71875 -3.859375 C 0.550781 -5.234375 0.515625 -6.007812 0.609375 -6.1875 C 0.710938 -6.363281 0.800781 -6.890625 0.875 -7.765625 C 0.945312 -8.640625 0.992188 -9.222656 1.015625 -9.515625 C 1.046875 -9.816406 1.125 -10.097656 1.25 -10.359375 C 1.375 -10.617188 1.503906 -10.8125 1.640625 -10.9375 C 1.773438 -11.0625 2.003906 -11.175781 2.328125 -11.28125 C 2.671875 -11.375 3.015625 -11.445312 3.359375 -11.5 C 3.710938 -11.550781 4.4375 -11.625 5.53125 -11.71875 C 6.625 -11.820312 7.328125 -11.925781 7.640625 -12.03125 C 8.441406 -12.269531 9.023438 -12.226562 9.390625 -11.90625 C 9.585938 -11.738281 9.6875 -11.515625 9.6875 -11.234375 C 9.6875 -10.960938 9.585938 -10.726562 9.390625 -10.53125 C 9.203125 -10.332031 8.671875 -10.144531 7.796875 -9.96875 C 6.929688 -9.789062 5.992188 -9.664062 4.984375 -9.59375 C 3.972656 -9.519531 3.394531 -9.457031 3.25 -9.40625 Z M 3.25 -9.40625 "/></g></g></g><g fill="#00c4cc" fill-opacity="1"><g transform="translate(272.345727, 287.910414)"><g/></g></g><g fill="#ffffff" fill-opacity="1"><g transform="translate(281.862632, 287.910414)"><g><path d="M 2.703125 -4.96875 L 5.765625 -4.96875 C 7.460938 -4.96875 8.492188 -4.914062 8.859375 -4.8125 C 9.234375 -4.71875 9.421875 -4.429688 9.421875 -3.953125 C 9.421875 -3.484375 9.25 -3.195312 8.90625 -3.09375 C 8.5625 -3 7.539062 -2.957031 5.84375 -2.96875 L 2.703125 -2.96875 C 2.703125 -0.738281 2.628906 0.519531 2.484375 0.8125 C 2.347656 1.113281 2.101562 1.289062 1.75 1.34375 C 1.40625 1.394531 1.109375 1.300781 0.859375 1.0625 C 0.691406 0.90625 0.597656 0.585938 0.578125 0.109375 C 0.554688 -0.359375 0.578125 -1.851562 0.640625 -4.375 C 0.703125 -6.90625 0.734375 -8.601562 0.734375 -9.46875 C 0.710938 -9.726562 0.835938 -9.992188 1.109375 -10.265625 C 1.390625 -10.546875 1.644531 -10.703125 1.875 -10.734375 C 2.113281 -10.773438 2.796875 -10.769531 3.921875 -10.71875 C 5.046875 -10.664062 6.070312 -10.523438 7 -10.296875 C 7.9375 -10.078125 8.578125 -9.828125 8.921875 -9.546875 C 9.117188 -9.378906 9.21875 -9.164062 9.21875 -8.90625 C 9.21875 -8.644531 9.117188 -8.40625 8.921875 -8.1875 C 8.722656 -7.976562 8.488281 -7.875 8.21875 -7.875 C 7.945312 -7.875 7.445312 -8 6.71875 -8.25 C 5.988281 -8.5 4.648438 -8.613281 2.703125 -8.59375 Z M 2.703125 -4.96875 "/></g></g></g><g fill="#ffffff" fill-opacity="1"><g transform="translate(294.414764, 287.910414)"><g><path d="M 7.921875 -4.484375 C 7.890625 -4.679688 7.519531 -5.679688 6.8125 -7.484375 C 5.976562 -5.921875 5.550781 -5.03125 5.53125 -4.8125 C 5.550781 -4.769531 5.945312 -4.695312 6.71875 -4.59375 C 7.488281 -4.488281 7.890625 -4.453125 7.921875 -4.484375 Z M 0.9375 0.296875 C 0.6875 0.046875 0.5625 -0.148438 0.5625 -0.296875 C 0.5625 -0.441406 0.769531 -0.828125 1.1875 -1.453125 C 1.613281 -2.078125 2.507812 -3.707031 3.875 -6.34375 C 5.25 -8.988281 6.03125 -10.453125 6.21875 -10.734375 C 6.351562 -10.921875 6.59375 -10.988281 6.9375 -10.9375 C 7.289062 -10.882812 7.570312 -10.734375 7.78125 -10.484375 C 8 -10.242188 8.191406 -9.835938 8.359375 -9.265625 C 8.535156 -8.691406 8.972656 -7.484375 9.671875 -5.640625 C 10.367188 -3.796875 10.851562 -2.550781 11.125 -1.90625 C 11.40625 -1.257812 11.566406 -0.789062 11.609375 -0.5 C 11.660156 -0.21875 11.625 -0.00390625 11.5 0.140625 C 11.375 0.296875 11.144531 0.398438 10.8125 0.453125 C 10.488281 0.492188 10.207031 0.394531 9.96875 0.15625 C 9.726562 -0.0703125 9.523438 -0.398438 9.359375 -0.828125 C 9.171875 -1.242188 9.035156 -1.523438 8.953125 -1.671875 C 8.878906 -1.828125 8.78125 -1.945312 8.65625 -2.03125 C 8.539062 -2.09375 8.429688 -2.132812 8.328125 -2.15625 C 8.222656 -2.1875 8.054688 -2.226562 7.828125 -2.28125 C 7.609375 -2.332031 7.28125 -2.414062 6.84375 -2.53125 C 6.414062 -2.65625 5.613281 -2.75 4.4375 -2.8125 L 3.453125 -1.25 C 2.984375 -0.476562 2.625 0.03125 2.375 0.28125 C 2.113281 0.539062 1.867188 0.671875 1.640625 0.671875 C 1.421875 0.671875 1.1875 0.546875 0.9375 0.296875 Z M 0.9375 0.296875 "/></g></g></g><g fill="#ffffff" fill-opacity="1"><g transform="translate(309.171004, 287.910414)"><g><path d="M 11 -0.078125 C 10.519531 -0.078125 10.226562 -0.210938 10.125 -0.484375 C 10.03125 -0.753906 9.972656 -1.539062 9.953125 -2.84375 C 9.953125 -4.132812 9.910156 -4.914062 9.828125 -5.1875 C 9.773438 -5.3125 9.660156 -5.210938 9.484375 -4.890625 C 9.304688 -4.566406 9.035156 -3.992188 8.671875 -3.171875 C 8.316406 -2.347656 8.050781 -1.753906 7.875 -1.390625 C 7.707031 -1.035156 7.53125 -0.757812 7.34375 -0.5625 C 7.15625 -0.363281 6.988281 -0.269531 6.84375 -0.28125 C 6.695312 -0.300781 6.488281 -0.382812 6.21875 -0.53125 C 5.945312 -0.675781 5.507812 -1.195312 4.90625 -2.09375 C 4.3125 -2.988281 3.789062 -3.90625 3.34375 -4.84375 C 3.101562 -5.289062 2.941406 -5.515625 2.859375 -5.515625 C 2.785156 -5.515625 2.707031 -4.453125 2.625 -2.328125 C 2.550781 -0.210938 2.460938 1.050781 2.359375 1.46875 C 2.265625 1.894531 2.007812 2.109375 1.59375 2.109375 C 1.3125 2.117188 1.082031 2.035156 0.90625 1.859375 C 0.738281 1.691406 0.632812 1.46875 0.59375 1.1875 C 0.5625 0.914062 0.550781 0.191406 0.5625 -0.984375 C 0.570312 -2.160156 0.640625 -3.691406 0.765625 -5.578125 C 0.890625 -7.472656 0.988281 -8.613281 1.0625 -9 C 1.132812 -9.394531 1.285156 -9.734375 1.515625 -10.015625 C 1.765625 -10.285156 2.035156 -10.40625 2.328125 -10.375 C 2.628906 -10.351562 2.84375 -10.28125 2.96875 -10.15625 C 3.09375 -10.03125 3.347656 -9.546875 3.734375 -8.703125 C 4.117188 -7.859375 4.644531 -6.800781 5.3125 -5.53125 C 5.988281 -4.257812 6.363281 -3.601562 6.4375 -3.5625 C 6.5625 -3.53125 7.007812 -4.421875 7.78125 -6.234375 C 8.550781 -8.054688 9.085938 -9.160156 9.390625 -9.546875 C 9.597656 -9.773438 9.859375 -9.925781 10.171875 -10 C 10.484375 -10.082031 10.75 -10.046875 10.96875 -9.890625 C 11.195312 -9.742188 11.398438 -9.097656 11.578125 -7.953125 C 11.765625 -6.804688 11.867188 -5.625 11.890625 -4.40625 C 11.921875 -3.1875 11.945312 -2.328125 11.96875 -1.828125 C 11.988281 -1.328125 11.953125 -0.945312 11.859375 -0.6875 C 11.785156 -0.425781 11.6875 -0.257812 11.5625 -0.1875 C 11.4375 -0.113281 11.25 -0.078125 11 -0.078125 Z M 11 -0.078125 "/></g></g></g><g fill="#ffffff" fill-opacity="1"><g transform="translate(324.282132, 287.910414)"><g><path d="M 0.65625 -11.390625 C 0.8125 -11.566406 1.054688 -11.65625 1.390625 -11.65625 C 1.734375 -11.65625 2.003906 -11.5625 2.203125 -11.375 C 2.398438 -11.1875 2.59375 -10.414062 2.78125 -9.0625 C 2.957031 -7.695312 3.070312 -5.945312 3.125 -3.8125 C 3.1875 -1.664062 3.253906 -0.285156 3.328125 0.328125 C 3.398438 0.953125 3.347656 1.382812 3.171875 1.625 C 3.015625 1.8125 2.757812 1.914062 2.40625 1.9375 C 2.0625 1.96875 1.8125 1.894531 1.65625 1.71875 C 1.488281 1.539062 1.34375 0.816406 1.21875 -0.453125 C 1.09375 -1.722656 1.03125 -3.203125 1.03125 -4.890625 C 1.03125 -6.585938 0.929688 -8.039062 0.734375 -9.25 C 0.523438 -10.46875 0.5 -11.179688 0.65625 -11.390625 Z M 0.65625 -11.390625 "/></g></g></g><g fill="#ffffff" fill-opacity="1"><g transform="translate(330.763661, 287.910414)"><g><path d="M 0.984375 -11.375 C 1.242188 -11.5625 1.445312 -11.65625 1.59375 -11.65625 C 1.75 -11.65625 1.929688 -11.578125 2.140625 -11.421875 C 2.359375 -11.273438 2.488281 -11.101562 2.53125 -10.90625 C 2.582031 -10.707031 2.613281 -10.175781 2.625 -9.3125 C 2.644531 -8.457031 2.703125 -7.304688 2.796875 -5.859375 C 2.898438 -4.421875 3.023438 -3.40625 3.171875 -2.8125 C 6.285156 -2.726562 8.195312 -2.625 8.90625 -2.5 C 9.34375 -2.40625 9.582031 -2.117188 9.625 -1.640625 C 9.675781 -1.171875 9.5 -0.847656 9.09375 -0.671875 C 8.800781 -0.546875 7.671875 -0.53125 5.703125 -0.625 C 3.742188 -0.726562 2.601562 -0.859375 2.28125 -1.015625 C 1.707031 -1.296875 1.320312 -1.867188 1.125 -2.734375 C 0.925781 -3.609375 0.773438 -5.320312 0.671875 -7.875 L 0.5625 -11.078125 Z M 0.984375 -11.375 "/></g></g></g><g fill="#ffffff" fill-opacity="1"><g transform="translate(343.521266, 287.910414)"><g><path d="M 4.46875 -6.78125 C 4.550781 -6.769531 4.664062 -6.925781 4.8125 -7.25 C 4.96875 -7.570312 5.53125 -8.46875 6.5 -9.9375 C 7.476562 -11.40625 8.03125 -12.175781 8.15625 -12.25 C 8.46875 -12.457031 8.800781 -12.46875 9.15625 -12.28125 C 9.519531 -12.09375 9.703125 -11.820312 9.703125 -11.46875 C 9.554688 -10.988281 8.910156 -9.835938 7.765625 -8.015625 C 6.617188 -6.203125 6.003906 -5.234375 5.921875 -5.109375 L 5.15625 -3.71875 C 5.15625 -3.5625 5.175781 -3.101562 5.21875 -2.34375 C 5.269531 -1.59375 5.316406 -0.960938 5.359375 -0.453125 C 5.398438 0.046875 5.441406 0.421875 5.484375 0.671875 C 5.535156 0.921875 5.40625 1.191406 5.09375 1.484375 C 4.78125 1.785156 4.476562 1.898438 4.1875 1.828125 C 3.882812 1.734375 3.671875 1.535156 3.546875 1.234375 C 3.429688 0.929688 3.351562 0.257812 3.3125 -0.78125 C 3.164062 -3.320312 2.707031 -5.453125 1.9375 -7.171875 C 1.164062 -8.890625 0.71875 -10.046875 0.59375 -10.640625 C 0.46875 -11.242188 0.597656 -11.644531 0.984375 -11.84375 C 1.367188 -12.039062 1.6875 -12.0625 1.9375 -11.90625 C 2.1875 -11.757812 2.4375 -11.351562 2.6875 -10.6875 C 2.914062 -10.007812 3.253906 -9.1875 3.703125 -8.21875 C 4.148438 -7.25 4.40625 -6.769531 4.46875 -6.78125 Z M 4.46875 -6.78125 "/></g></g></g></svg>